<?xml version="1.0" encoding="utf-8"?>
<!-- Generator: Adobe Illustrator 26.0.3, SVG Export Plug-In . SVG Version: 6.00 Build 0)  -->
<svg version="1.1" id="Layer_2_00000121983578781027342170000008199490489414752136_"
	 xmlns="http://www.w3.org/2000/svg" xmlns:xlink="http://www.w3.org/1999/xlink" x="0px" y="0px" viewBox="0 0 1000 644.2"
	 style="enable-background:new 0 0 1000 644.2;" xml:space="preserve">
<style type="text/css">
	.st0{fill:#E5E3E4;}
</style>
<path class="st0" d="M8.2,414.5c4.4,27.6,19.4,115.7,63.1,168.9c15,18.2,37.5,28.9,61.1,28.9h763c21.2,0,41.4-8.6,56.2-23.9
	l37.2-38.8c6.4-6.5,2.4-17.5-6.5-18.7L510.9,468c-36.8-5-72.7-15.6-106.2-31.5c-49.9-23.8-104.5-35.5-159.4-34.5
	c-28.3,0.4-56.7,1-85,0.8l-142-0.8C11.9,402.2,7.2,408.1,8.2,414.5z M282.8,454.4h35.4c6.6,0,12,5.4,12,12s-5.4,12-12,12h-35.4
	c-6.6,0-12-5.4-12-12S276.1,454.4,282.8,454.4z M184.5,454.4h35.4c6.6,0,12,5.4,12,12s-5.4,12-12,12h-35.4c-6.6,0-12-5.4-12-12
	S177.8,454.4,184.5,454.4z M86.1,454.4h35.4c6.6,0,12,5.4,12,12s-5.4,12-12,12H86.1c-6.6,0-12-5.4-12-12S79.5,454.4,86.1,454.4z"/>
<path class="st0" d="M475.8,40v396.5c8.1,2,16.1,3.8,24.2,5.2V40c0-3.4-1.4-6.4-3.5-8.6c-2.1-2.1-5.2-3.5-8.6-3.5
	C481.2,27.9,475.8,33.3,475.8,40z"/>
<path class="st0" d="M522.8,445.2l307.6,41C678.2,208.8,568.8,80.7,522.8,63.7V445.2z"/>
<path class="st0" d="M241.5,377.7h3.4c2.1,0,4.2,0,6.4,0c56.3,0,113,12.7,163.8,36.9c12.3,5.8,24.9,10.9,37.8,15.3V63.7
	c-39.6,14.6-126,111.3-246.1,314.6C218.4,378.1,230.1,377.9,241.5,377.7z"/>
</svg>
