<?xml version="1.0" encoding="utf-8"?>
<!-- Generator: Adobe Illustrator 26.0.2, SVG Export Plug-In . SVG Version: 6.00 Build 0)  -->
<svg version="1.1" id="Layer_1" xmlns="http://www.w3.org/2000/svg" xmlns:xlink="http://www.w3.org/1999/xlink" x="0px" y="0px"
	 viewBox="0 0 613.9 485.1" style="enable-background:new 0 0 613.9 485.1;" xml:space="preserve">
<style type="text/css">
	.st0{fill:#99E100;stroke:#000000;stroke-width:0.1876;stroke-miterlimit:10;}
	.st1{stroke:#000000;stroke-width:0.1876;stroke-miterlimit:10;}
</style>
<g id="template">
</g>
<g id="Layer_1_00000158013480159743889470000000136138776112296113_">
	<g>
		<path class="st0" d="M592,227.2c2.8-10.5,0.4-22.1-6.7-31.3c-6.4-8.3-18.5-18.2-39.8-18.2c-7.4,0-13.7,1.1-19.1,2.8v-2.9
			c0-7.4-3.6-13.9-9.2-17.9c-1.1-11.3-5.5-21.9-12.9-30.2c-9.8-11-23.8-17.1-39.5-17.1c-0.3,0-0.6,0-0.9,0c3.1-8,5.4-13.9,5.4-14
			c0.2,0,0.4,0,0.6-0.1c11-1.4,19.1-10.8,19.1-21.8v-2c0-12.2-9.8-22-22-22H443c-2.4,0-4.7,0.4-6.9,1.1c-2.2-0.7-4.5-1.1-6.9-1.1
			h-43.8c-2.7,0-5.3,0.5-7.7,1.4c-4-0.9-8.4-1.4-12.9-1.4c-16.9,0-28.5,5.4-36.2,11.4c-8.3-7.3-19.5-11.3-32.9-11.3
			c-3.1,0-6.1,0.3-9.1,0.9c-2-0.6-4.2-1-6.5-1c0,0-2,0-2,0c-5.6,0-10.4,1.7-14.5,5.5c-0.3,0.2-1.2,0.9-2.6,1.7
			c0.3-1.9,0.5-3.9,0.5-5.9c0-19.2-15.6-34.7-34.7-34.7c-18.5,0-33.6,14.5-34.7,32.7c-2.9,0.1-5.9,0.6-8.8,1.3
			c-1.6-0.3-3.2-0.5-4.9-0.5h-2c-5.6,0-10.5,1.6-14.5,5.5c-0.3,0.3-1.4,1-2.8,1.9c-9.7-24.6-31.7-41.5-58-41.7c0,0-0.2,0-0.2,0
			c-35.5,0.2-63.3,30.9-63.3,70s27.8,69.8,63.3,70c0,0,0.1,0,0.1,0s0.1,0,0.1,0c1.2,0,2.3,0,3.5-0.1c-1.5,1.3-3,2.7-4.4,4.1
			c-10.5,10.8-16.5,25.4-16.7,41.1c-0.2,15.3,5.1,29.9,14.9,40.9c0.5,0.6,1.1,1.2,1.6,1.7c-5.7-1.7-11.6-2.6-17.6-2.6l-10.2,0H40.7
			c-12.1,0-22,9.8-22,22v2c0,8.1,4.4,15.2,11,19v52.2c-6.6,3.8-11,10.9-11,19v2c0,12.2,9.9,22,22,22h41.9c13.9,0,26.7-4.8,37.1-13.7
			c9.8,9.2,23.2,14.6,37.9,14.6h0c3.6,0,7-0.3,10.4-1c2.5,4.3,6.3,7.9,11.1,10c4.1,1.8,7.7,2,10.1,2h2.3c3.2,0,6.4,0,9.6,0
			c0.3,0,0.6,0,0.9,0c-1.3,0.8-2.5,1.8-3.7,2.8c-8.9,7.7-13.3,18.8-12.1,30.4c1.3,12.9,9.5,24.9,21.9,32.1
			c8.1,4.9,17.7,7.6,27.9,7.6c17.8,0,33.6-6.8,44.7-19.2c7.9-8.9,12.8-20,14.4-32c4.2,0.6,8.8,0.9,13.6,0.9
			c29.2,0,50.8-13.7,56.7-34.5h15.8c0.9,0,1.7,0,2.6-0.2c0.8,0.1,1.7,0.2,2.6,0.2h39c2.3,0,4.5-0.4,6.7-1c4.7,1.3,9.7,2,14.9,2
			c22,0,36.6-8.5,44.5-19.9c9.5,10.7,23.4,17.5,38.9,17.5c28.7,0,52.1-23.4,52.1-52.1c0-19.5-10.7-36.4-26.5-45.4
			c18.3-3.1,33.3-15,40.3-32.8C599,242.2,597.5,233.4,592,227.2z"/>
		<g>
			<g>
				<path d="M142.6,88.3c0,26.4-17.5,47.9-41.4,48c-23.9-0.1-41.4-21.6-41.4-48c0-26.4,17.5-47.9,41.4-48
					C125.1,40.5,142.6,61.9,142.6,88.3z M82.5,88.3c0,23.4,7.9,45.9,18.8,46c10.8-0.1,18.8-22.6,18.8-46c0-23.4-7.9-45.9-18.8-46
					C90.4,42.4,82.5,64.9,82.5,88.3z"/>
				<path d="M206.1,93.6c-4.6,7.5-16.9,6-18.2-2.5c9.3-0.2,7.4-13.9-0.6-12.5s-8.7,7.6-8.7,22v11.1v7.4c0,10.5,2.8,14.5,11,14.5v2
					h-43.8v-2c9,0,11-4,11-14.5v-7.4v-7.7c0-10.5-2.2-16-9-16.5v-2c16.9,0,28.9-10.7,28.9-10.7h2v5.9c1.8-2.4,4.8-4.5,9.8-5.9
					c2-0.6,4-0.8,5.8-0.8C205.3,73.9,211.9,83.9,206.1,93.6z"/>
				<path d="M239.7,74.7v36.9v7.4c0,10.5,2.8,14.5,11,14.5v2h-43.8v-2c9,0,11-4,11-14.5v-7.4v-7.7c0-10.5-2.2-16-9-16.5v-2
					c16.9,0,28.9-10.7,28.9-10.7L239.7,74.7L239.7,74.7z M239.7,54c0,7-5.7,12.7-12.7,12.7S214.2,61,214.2,54
					c0-7,5.7-12.7,12.7-12.7C234,41.2,239.7,46.9,239.7,54z"/>
				<path d="M278.3,74.7h2v6.8c3.4-4.1,8.8-6.8,15.6-6.8c18.7,0,24.5,11.1,26.3,22l1.7,14.5l0,0c2.4,18.9,2.8,22.2,9.2,22.2v2h-19.4
					h-0.2H294v-2c6.4,0,9.6-5.3,8.7-14.5l0,0l-2.4-24.5c-0.9-7.8-3.9-16.1-11.9-15.1c-7.2,1-8.1,8.2-8.1,21.8v10.3v7.4
					c0,9.8,2.1,14.5,8.5,14.5v2h-19.4l0,0h-0.1l0,0h-19.4v-2c6.4,0,8.5-4.6,8.5-14.5v-3.7v-3.7v-7.7c0-10.5-2.2-16-9-16.5v-2
					C266.2,85.4,278.3,74.7,278.3,74.7L278.3,74.7z"/>
				<path d="M386.4,99.1c-4.6,9.3-21.3,5.7-18.2-6.9c12,0,10.7-15.5-3.5-15.5c-8.3,0-13.1,12.5-10.7,28.1
					c3.3,21.6,25.5,31.3,37.5,10.5l1.4,1.4c-12.2,30.5-58.3,23.8-61.4-8c-1.6-18.2,9-34,33.3-34C383.6,74.7,392.5,86.7,386.4,99.1z"
					/>
				<path d="M385.5,74.7h43.8v2c-9.5-0.1-9.8,5-5.7,14.5l12.2,27.2l10.5-27.2c3.6-9.1,3.4-14-3.3-14.5v-2h23.9v2
					c-12.7,1.7-14.7,4.7-18.5,14.5l-21.7,56h0l-0.7,1.9c-5.5,14.6-11.9,15.8-18.9,16.1c-7.9,0.3-17.7-4.6-16.6-16.7
					c1.2-12.1,19.2-13,21.6-1c-6,0-7.9,8.8-1.9,10.2c5.8,1.3,11.1-1.6,13.4-7.9l1-2.7l-25-56c-4.1-9.3-9-14.5-14.2-14.5L385.5,74.7
					L385.5,74.7z"/>
			</g>
			<g>
				<g>
					<g>
						<path d="M454.8,194.1c-8.8-0.2-44.2-0.1-53-0.1c-0.6,0-1.2,0-1.9,0c-0.4,0-0.8,0-1.2,0.2c-0.4,0.2-0.7,0.5-0.6,0.9
							c0,0.7,1,0.9,1.7,1c9,0,44.5,0.1,53.4,0.1c4.3,0,8.7,0.4,12.9-0.1c3.5-0.4,7.1-1.2,10.4-2.5c3.8-1.6,7.4-3.9,10.3-6.9
							c5.6-5.8,8.4-13.5,8.5-21.3c0.1-7.7-2.5-15.5-7.6-21.3c-5.2-5.8-12.9-9.7-23.1-9.7c-5.7,0-10.2,1.5-13.6,3.6
							c-9.8,5.6-12.2,16.2-5.4,22c2.9,2.5,6.1,2.2,8.6,0.6c3.9-2.6,5.8-8.5,1.1-12.5c-1.9,3.2-5.8,1.5-7.1-0.5
							c-1.2-1.9-0.8-5.4,4-8.8c3.2-1.9,7.2-3.1,12.4-3.1c9.8,0,17.1,3.7,22,9.2c4.9,5.5,7.4,12.9,7.3,20.3
							c-0.1,7.4-2.8,14.8-8.2,20.3c-2.5,2.6-5.7,4.5-9,5.9c-3.2,1.3-7,2.5-10.5,2.7c-3.8,0.1-7.6,0-11.4-0.2
							C454.9,194.1,454.9,194.1,454.8,194.1z"/>
					</g>
					<path d="M226.7,166.3v2c-8.1,0-13.4,3.2-9,14.5l18.4,47.2l-11.6,30.5l-30.3-77.8c-3.8-8.4-5.6-14.5-11.3-14.5v-2L226.7,166.3
						L226.7,166.3z M251.9,188.6l-2.3-5.8c-3.8-8.4-5.6-14.5-11.3-14.5v-2h43.8v2c-8.1,0-13.4,3.2-9,14.5l18.4,47.2l-11.6,30.5
						L253,191.3l-26.4,69.2h-2.1L251.9,188.6z M310.3,180.8c2-8-2.6-12.5-9.6-12.5v-2h27.4v2c-7.4,0-11.9,2.8-16.4,14.5L282,260.5
						h-2.1L310.3,180.8z"/>
					<path d="M356.4,166.3v33.5v5.8c4.3-3.5,9.4-5.5,14.7-5.8c18.1-1.2,25.9,7.9,28.1,22l1.5,13c2.8,22.9,7.2,23.8,14.4,23.8v2
						h-19.7h-23v-2c7.2,0,8.5-3.1,7.3-14.5l-2.3-20.6c-1.8-14.5-7.6-21.2-13.9-19.6c-3.5,0.9-7,4.1-7,18.1l0,0v14.5v7.4
						c0,10.5,2.8,14.5,11,14.5v2h-43.8v-2c9,0,11-4,11-14.5v-7.4v-41.2c0-10.5-2.2-16-9-16.5v-2c16.9,0,28.9-10.7,28.9-10.7
						L356.4,166.3L356.4,166.3z"/>
					<path d="M442.2,202.7v2c-9.5-0.1-9.8,5-5.7,14.5l12.2,27.2l10.5-27.3c3.6-9.1,3.4-14-3.3-14.5v-2h23.9v2
						c-12.7,1.7-14.7,4.7-18.5,14.5l-21.7,56h0L439,277c-5.5,14.6-11.9,15.8-18.9,16.1c-7.9,0.3-17.7-4.6-16.6-16.7
						c1.2-12.1,19.2-13,21.6-1c-6,0-7.9,8.8-1.9,10.2c5.8,1.3,11.1-1.6,13.4-7.9l1-2.7l-25-56c-4.1-9.3-9-14.5-14.2-14.5v-2
						L442.2,202.7L442.2,202.7z"/>
					<path d="M504.4,177.6v25.6h11.6v2h-11.6v27.4v6.8c0,16.7,8.1,13.8,12.8,5.6l1.4,1.4c-2.3,4-7.7,15-19.8,15
						c-10.5,0-16.3-5.9-16.3-22v-7.2v-25.5v-1.6h-10.1v-2c13.7-3.7,27-14.4,30-25.6L504.4,177.6L504.4,177.6z"/>
					<path d="M567.9,209.3c5.4,7,4.8,18.9-7.9,20.4l-22.9,2.6c0.2,0.7,0.4,1.4,0.6,2.1c6,18.2,27.1,21.3,36.5,6l1.4,1.4
						c-11.4,28.5-52.3,24.6-60.2-2c-0.6-1.9-1-3.9-1.2-6c-1.6-18.2,7-34,31.4-34C557.1,199.7,563.9,204.1,567.9,209.3z M545.4,201.7
						c-8.7,0-11,13.7-8.8,28.1c0,0.2,0.1,0.4,0.1,0.6l4.3-0.5c0,0,0,0,0,0c12.4-1.4,14-8.4,13.6-12.8
						C553.8,209.3,551.6,201.7,545.4,201.7L545.4,201.7z"/>
				</g>
				<g>
					<path d="M155.5,168.6c10.7,0.3,21.5,0.1,32.2,0.1c0.8,0,1.5,0,2.3,0c0.5,0,1,0,1.4-0.2s0.8-0.6,0.8-1.1c0-0.9-1.2-1.2-2.1-1.2
						c-10.9-0.1-21.9-0.1-32.8-0.2c-5.2,0-10.6-0.5-15.8,0.1c-4.4,0.5-8.6,1.5-12.7,3.1c-4.7,1.9-9,4.8-12.6,8.4
						c-6.9,7.1-10.3,16.6-10.5,26c-0.1,9.5,3,18.9,9.4,26c6.3,7.1,15.8,11.8,28.2,11.8c7,0,12.5-1.8,16.6-4.5
						c12-6.8,14.9-19.8,6.6-27c-3.5-3-7.5-2.7-10.5-0.7c-4.7,3.2-7,10.4-1.3,15.3c2.3-3.9,7.1-1.9,8.7,0.5c1.5,2.3,1,6.6-4.9,10.7
						c-3.9,2.3-8.9,3.8-15.2,3.8c-12,0-20.9-4.5-27-11.3c-6-6.8-9-15.8-8.9-24.9c0.1-9,3.4-18.1,10-24.9c3.1-3.2,6.9-5.5,11-7.2
						c3.9-1.6,8.6-3.1,12.8-3.2c4.7-0.2,9.3,0,14,0.2C155.3,168.6,155.4,168.6,155.5,168.6z"/>
				</g>
			</g>
			<g>
				<path d="M122.1,309.5c0,29.3-16.7,50.2-39.5,50.2h-9.1h-0.8h-5.4H51.7h-11v-2c9,0,11-4,11-14.5v-7.4v-46.4v-7.4
					c0-10.5-1.9-14.5-11-14.5v-2h11h13.7h6.9l10.3,0C102.1,265.4,122.1,280.2,122.1,309.5z M73.6,357.6c20.1,0,26.5-26.2,26.6-48.2
					c0.1-22-12.7-42-23.9-42h-2.8L73.6,357.6L73.6,357.6z"/>
				<path d="M179.3,308.4c5.4,7,4.8,18.9-7.9,20.4l-22.9,2.6c0.2,0.7,0.4,1.4,0.6,2.1c6,18.2,27.1,21.3,36.5,6l1.4,1.4
					c-11.4,28.5-52.3,24.5-60.2-2c-0.6-1.9-1-3.9-1.2-6c-1.6-18.2,7-34,31.4-34C168.5,298.8,175.3,303.2,179.3,308.4z M156.8,300.8
					c-8.7,0-11,13.7-8.8,28.1c0,0.2,0.1,0.4,0.1,0.6l4.3-0.5c0,0,0,0,0,0c12.4-1.4,14-8.4,13.6-12.8
					C165.2,308.4,163.1,300.8,156.8,300.8L156.8,300.8z"/>
				<path d="M229.5,298.8h2l1.9,19.9l-2,0.2c-2.8-12.2-7.5-18.1-17.5-18.1c-7.1,0-9.3,6.5-6.6,11.8c4.7,9,33.9,11.1,33.9,27.1
					c0,12.3-11.3,20.8-29.7,20.8c-16.3,0-25-9.8-22.6-18.9c1.2-4.5,4.8-6.5,8.4-6.5c5.7,0,11.8,4.7,9.8,12c-4.1-2-7,2.4-6.9,5.4
					c0.1,2.8,2.8,6,10.2,6c8.8,0,11.9-6,11.9-10.5c0-14.1-30.9-11.7-32.8-30.8c-1-10,5.9-18.5,24.4-18.5
					C224.9,298.8,228.5,302.7,229.5,298.8z"/>
				<path d="M269.7,298.8v36.9v7.4c0,10.5,2.8,14.5,11,14.5v2h-43.8v-2c9,0,11-4,11-14.5v-7.4V328c0-10.5-2.2-16-9-16.5v-2
					c16.9,0,28.9-10.7,28.9-10.7L269.7,298.8L269.7,298.8z M269.7,278.1c0,7-5.7,12.7-12.7,12.7c-7,0-12.7-5.7-12.7-12.7
					c0-7,5.7-12.7,12.7-12.7C264,265.4,269.7,271.1,269.7,278.1z"/>
				<path d="M345.7,287.8c3,8.8-6.8,16.5-13.3,10.8c4.1-3.6-2.6-12-8.9-6.8c-2.5,2.1-3.6,4.5-4.4,6.4c11.7,3.1,20.2,12.7,20.2,24.1
					c0,13.9-12.7,25.2-28.3,25.2c-5.7,0-11-1.5-15.5-4.1c-8,3-3.2,10.8,13.2,10.8c22.2,0,36.2,2.2,36.2,15.8
					c0,16.5-17.8,24.1-36.3,24.1c-10,0-29.1-1.7-29.1-14.8c0-4.4,2.8-8,9.4-9.7c-11.2-3-12.8-22.1,4.6-27.6
					c-6.5-4.6-10.7-11.7-10.7-19.7c0-13.9,12.7-25.2,28.3-25.2c2.1,0,4.2,0.2,6.2,0.6c1.5-5,3.1-8.4,6.2-11.5
					c3.7-3.7,8.2-5.3,12.3-5.2C340.2,281.2,344.2,283.6,345.7,287.8z M308.7,392.1c17.7,0,29.1-18.1,11.7-19.1
					c-6-0.3-16-0.7-23.3-1.3C289.9,378,292.1,392.1,308.7,392.1z M305.6,300.4c-5,1.4-5.1,11.9-1.8,24s8.6,21.2,13.6,19.8
					s5.1-11.9,1.8-24c-3.1-11.3-7.9-20-12.7-20C306.2,300.2,305.9,300.3,305.6,300.4z"/>
				<path d="M370.5,298.8h2v6.8c3.4-4.1,8.7-6.8,15.5-6.8c18.7,0,24.5,11.1,26.3,22l1.7,14.5l0,0c2.4,18.9,2.8,22.2,9.2,22.2v2
					h-19.4h-0.2h-19.4v-2c6.4,0,9.6-5.3,8.7-14.5l0,0l-2.4-24.5c-0.9-7.8-3.9-16.1-11.8-15.1c-7.2,1-8.1,8.2-8.1,21.8v10.3v7.4
					c0,9.8,2.1,14.5,8.5,14.5v2h-19.4l0,0h-0.2l0,0h-19.4v-2c6.4,0,8.5-4.6,8.5-14.5v-3.7v-3.7V328c0-10.5-2.2-16-9-16.5v-2
					C358.5,309.6,370.5,298.8,370.5,298.8L370.5,298.8z"/>
				<path d="M464.6,298.8h2l1.9,19.9l-2,0.2c-2.8-12.2-7.5-18.1-17.5-18.1c-7.2,0-9.3,6.5-6.6,11.8c4.7,9,33.9,11.1,33.9,27.1
					c0,12.3-11.3,20.8-29.7,20.8c-16.3,0-25-9.8-22.6-18.9c1.2-4.5,4.8-6.5,8.4-6.5c5.7,0,11.8,4.7,9.8,12c-4.1-2-7,2.4-6.9,5.4
					c0,2.8,2.8,6,10.2,6c8.8,0,11.9-6,11.9-10.5c0-14.1-30.9-11.7-32.8-30.8c-1-10,5.9-18.5,24.4-18.5
					C460,298.8,463.6,302.7,464.6,298.8z"/>
				<path d="M223.7,371.5c-10.7,0.3-21.5,0.1-32.2,0.1c-0.8,0-1.5,0-2.3,0c-0.5,0-1,0-1.4-0.2s-0.8-0.6-0.8-1.1
					c0-0.9,1.2-1.2,2.1-1.2c10.9-0.1,21.9-0.1,32.8-0.2c5.2,0,10.6-0.5,15.8,0.1c4.4,0.5,8.6,1.5,12.7,3.1c4.7,1.9,9,4.8,12.6,8.4
					c6.9,7.1,10.3,16.6,10.5,26c0.1,9.5-3,18.9-9.4,26c-6.3,7.1-15.8,11.8-28.2,11.8c-7,0-12.5-1.8-16.6-4.5
					c-12-6.8-14.9-19.8-6.6-27c3.5-3,7.5-2.7,10.5-0.7c4.7,3.2,7,10.4,1.3,15.3c-2.3-3.9-7.1-1.9-8.7,0.5c-1.5,2.3-1,6.6,4.9,10.7
					c3.9,2.3,8.9,3.8,15.2,3.8c12,0,20.9-4.5,26.9-11.3c6-6.8,9-15.8,8.9-24.9c-0.1-9-3.4-18.1-10-24.9c-3.1-3.2-6.9-5.5-11-7.2
					c-3.9-1.6-8.6-3.1-12.8-3.2c-4.7-0.2-9.3,0-14,0.2C223.9,371.5,223.8,371.5,223.7,371.5z"/>
			</g>
			<g>
				<g>
					<path class="st1" d="M485.1,333.7l10.3-4.9c6.1-2.9,7.3-4.7,7.2-7.3c-0.1-2.8-3-5.6-8.4-5.4c-5,0.2-8.2,3.2-8.1,6.3
						c0,0.1-0.1,0.2-0.2,0.2l-0.7,0c-0.1,0-0.2-0.1-0.2-0.2c-0.1-3.7,3.8-7.2,9.1-7.3c5.9-0.2,9.3,3.1,9.4,6.3c0.1,2.6-1,4.9-7.6,8
						l-5.5,2.6c-0.6,0.3-3.4,1.4-3.4,1.4l0,0.1c0,0,2.6-0.2,3.7-0.2l13.2-0.5c0.1,0,0.2,0.1,0.2,0.2l0,0.6c0,0.1-0.1,0.2-0.2,0.2
						l-19,0.6L485.1,333.7z"/>
					<path class="st1" d="M518.4,307.1c6.7-0.2,11.1,5.1,11.4,13c0.3,7.8-3.8,13.5-10.5,13.7c-6.7,0.2-11.1-5.1-11.4-13
						C507.7,312.9,511.8,307.3,518.4,307.1z M519.3,332.8c6-0.2,9.7-5.4,9.5-12.7s-4.3-12.3-10.3-12c-6,0.2-9.7,5.4-9.5,12.7
						C509.2,328.1,513.3,333,519.3,332.8z"/>
					<path class="st1" d="M533,332.1l10.3-4.9c6.1-2.9,7.3-4.7,7.2-7.3c-0.1-2.8-3-5.6-8.4-5.4c-5,0.2-8.2,3.2-8.1,6.3
						c0,0.1-0.1,0.2-0.2,0.2l-0.7,0c-0.1,0-0.2-0.1-0.2-0.2c-0.1-3.7,3.8-7.2,9.1-7.3c5.9-0.2,9.3,3.1,9.4,6.3c0.1,2.6-1,4.9-7.6,8
						l-5.5,2.6c-0.6,0.3-3.4,1.4-3.4,1.4l0,0.1c0,0,2.6-0.2,3.7-0.2l13.2-0.5c0.1,0,0.2,0.1,0.2,0.2l0,0.6c0,0.1-0.1,0.2-0.2,0.2
						l-19,0.6L533,332.1z"/>
					<path class="st1" d="M555.7,331.3l10.3-4.9c6.1-2.9,7.3-4.7,7.2-7.3c-0.1-2.8-3-5.6-8.4-5.4c-5,0.2-8.2,3.2-8.1,6.3
						c0,0.1-0.1,0.2-0.2,0.2l-0.7,0c-0.1,0-0.2-0.1-0.2-0.2c-0.1-3.7,3.8-7.2,9.1-7.3c5.9-0.2,9.3,3.1,9.4,6.3c0.1,2.6-1,4.9-7.6,8
						l-5.5,2.6c-0.6,0.3-3.4,1.4-3.4,1.4l0,0.1c0,0,2.6-0.2,3.7-0.2l13.2-0.5c0.1,0,0.2,0.1,0.2,0.2l0,0.6c0,0.1-0.1,0.2-0.2,0.2
						l-19,0.6L555.7,331.3z"/>
				</g>
			</g>
		</g>
	</g>
</g>
</svg>
